<svg width="531" height="163" viewBox="0 0 531 163" fill="none" xmlns="http://www.w3.org/2000/svg">
<g clip-path="url(#clip0_4_2)">
<mask id="mask0_4_2" style="mask-type:luminance" maskUnits="userSpaceOnUse" x="0" y="32" width="95" height="100">
<path d="M95 32H0V132H95V32Z" fill="white"/>
</mask>
<g mask="url(#mask0_4_2)">
<g filter="url(#filter0_i_4_2)">
<path d="M10 132C7.34784 132 4.8043 130.946 2.92893 129.071C1.05357 127.196 0 124.652 0 122V72C0 69.3478 1.05357 66.8043 2.92893 64.9289C4.8043 63.0536 7.34784 62 10 62C12.6522 62 15.1957 63.0536 17.0711 64.9289C18.9464 66.8043 20 69.3478 20 72V122C20 124.652 18.9464 127.196 17.0711 129.071C15.1957 130.946 12.6522 132 10 132Z" fill="url(#paint0_linear_4_2)"/>
<path d="M0 42C0 44.6522 1.05357 47.1957 2.92893 49.0711C4.8043 50.9464 7.34784 52 10 52H45C52.9565 52 60.5871 55.1607 66.2132 60.7868C71.8393 66.4129 75 74.0435 75 82C75 89.9565 71.8393 97.5871 66.2132 103.213C60.5871 108.839 52.9565 112 45 112H40C37.3478 112 34.8043 113.054 32.9289 114.929C31.0536 116.804 30 119.348 30 122C30 124.652 31.0536 127.196 32.9289 129.071C34.8043 130.946 37.3478 132 40 132H45C51.5661 132 58.0679 130.707 64.1342 128.194C70.2004 125.681 75.7124 121.998 80.3553 117.355C84.9983 112.712 88.6812 107.2 91.194 101.134C93.7067 95.0679 95 88.5661 95 82C95 75.4339 93.7067 68.9321 91.194 62.8658C88.6812 56.7995 84.9983 51.2876 80.3553 46.6447C75.7124 42.0017 70.2004 38.3188 64.1342 35.806C58.0679 33.2933 51.5661 32 45 32H10C7.34784 32 4.8043 33.0536 2.92893 34.9289C1.05357 36.8043 0 39.3478 0 42Z" fill="url(#paint1_linear_4_2)"/>
</g>
</g>
</g>
<path d="M142 132.17C135.067 132.17 129.087 130.87 124.06 128.27C119.12 125.583 115.263 121.813 112.49 116.96C109.803 112.02 108.46 106.17 108.46 99.41C108.46 92.8233 109.803 87.06 112.49 82.12C115.177 77.18 118.86 73.3233 123.54 70.55C128.22 67.7767 133.55 66.39 139.53 66.39C143.95 66.39 147.893 67.1267 151.36 68.6C154.827 69.9867 157.773 72.0667 160.2 74.84C162.713 77.5267 164.577 80.82 165.79 84.72C167.09 88.62 167.74 92.9967 167.74 97.85C167.74 99.3233 167.307 100.45 166.44 101.23C165.573 101.923 164.273 102.27 162.54 102.27H118.86V94.21H158.9L156.69 96.03C156.69 91.6967 156.04 88.0133 154.74 84.98C153.527 81.9467 151.663 79.65 149.15 78.09C146.723 76.4433 143.69 75.62 140.05 75.62C135.977 75.62 132.51 76.5733 129.65 78.48C126.877 80.3867 124.753 83.03 123.28 86.41C121.807 89.79 121.07 93.7333 121.07 98.24V99.02C121.07 106.647 122.847 112.41 126.4 116.31C130.04 120.123 135.283 122.03 142.13 122.03C144.73 122.03 147.46 121.683 150.32 120.99C153.267 120.297 156.04 119.127 158.64 117.48C160.113 116.613 161.413 116.223 162.54 116.31C163.753 116.397 164.707 116.787 165.4 117.48C166.18 118.173 166.657 119.04 166.83 120.08C167.003 121.12 166.83 122.203 166.31 123.33C165.79 124.37 164.88 125.323 163.58 126.19C160.633 128.183 157.21 129.7 153.31 130.74C149.41 131.693 145.64 132.17 142 132.17ZM190.634 131.91C188.381 131.91 186.604 131.303 185.304 130.09C184.091 128.877 183.484 127.1 183.484 124.76V46.63C183.484 44.29 184.091 42.5133 185.304 41.3C186.604 40 188.424 39.35 190.764 39.35H237.044C238.951 39.35 240.338 39.8267 241.204 40.78C242.158 41.6467 242.634 42.9467 242.634 44.68C242.634 46.5 242.158 47.8867 241.204 48.84C240.338 49.7933 238.951 50.27 237.044 50.27H197.004V79.52H234.444C236.178 79.52 237.521 79.9967 238.474 80.95C239.514 81.8167 240.034 83.1167 240.034 84.85C240.034 86.67 239.514 88.0567 238.474 89.01C237.521 89.9633 236.178 90.44 234.444 90.44H197.004V124.76C197.004 129.527 194.881 131.91 190.634 131.91ZM271.778 132.17C267.358 132.17 263.371 131.303 259.818 129.57C256.351 127.837 253.621 125.497 251.628 122.55C249.634 119.603 248.638 116.267 248.638 112.54C248.638 107.86 249.808 104.177 252.148 101.49C254.574 98.7167 258.518 96.7667 263.978 95.64C269.524 94.4267 276.978 93.82 286.338 93.82H292.448V101.88H286.468C280.228 101.88 275.288 102.183 271.648 102.79C268.008 103.397 265.408 104.437 263.848 105.91C262.374 107.297 261.638 109.247 261.638 111.76C261.638 115.053 262.764 117.74 265.018 119.82C267.271 121.813 270.391 122.81 274.378 122.81C277.584 122.81 280.401 122.073 282.828 120.6C285.254 119.04 287.161 116.96 288.548 114.36C290.021 111.76 290.758 108.77 290.758 105.39V90.44C290.758 85.5 289.718 81.9467 287.638 79.78C285.558 77.6133 282.134 76.53 277.368 76.53C274.594 76.53 271.691 76.8767 268.658 77.57C265.711 78.2633 262.634 79.4333 259.428 81.08C257.954 81.7733 256.698 81.99 255.658 81.73C254.618 81.47 253.794 80.9067 253.188 80.04C252.581 79.0867 252.234 78.09 252.148 77.05C252.148 75.9233 252.408 74.84 252.928 73.8C253.534 72.76 254.531 71.98 255.918 71.46C259.731 69.64 263.501 68.34 267.228 67.56C270.954 66.78 274.464 66.39 277.758 66.39C283.564 66.39 288.331 67.3 292.058 69.12C295.871 70.94 298.688 73.7133 300.508 77.44C302.328 81.1667 303.238 85.9767 303.238 91.87V125.28C303.238 127.36 302.718 129.007 301.678 130.22C300.638 131.347 299.121 131.91 297.128 131.91C295.221 131.91 293.704 131.347 292.578 130.22C291.451 129.007 290.888 127.36 290.888 125.28V116.83H292.058C291.364 120.037 290.064 122.81 288.158 125.15C286.338 127.403 284.041 129.137 281.268 130.35C278.494 131.563 275.331 132.17 271.778 132.17ZM349.272 132.17C342.772 132.17 337.138 130.827 332.372 128.14C327.692 125.367 324.052 121.51 321.452 116.57C318.852 111.543 317.552 105.65 317.552 98.89C317.552 93.8633 318.288 89.3567 319.762 85.37C321.235 81.2967 323.315 77.8733 326.002 75.1C328.775 72.3267 332.112 70.2033 336.012 68.73C339.998 67.17 344.418 66.39 349.272 66.39C352.305 66.39 355.468 66.8667 358.762 67.82C362.142 68.6867 365.262 70.16 368.122 72.24C369.248 72.9333 369.942 73.8 370.202 74.84C370.548 75.7933 370.592 76.79 370.332 77.83C370.158 78.87 369.682 79.78 368.902 80.56C368.208 81.2533 367.342 81.6867 366.302 81.86C365.262 81.9467 364.135 81.6433 362.922 80.95C360.842 79.4767 358.718 78.4367 356.552 77.83C354.385 77.1367 352.305 76.79 350.312 76.79C347.192 76.79 344.418 77.31 341.992 78.35C339.652 79.3033 337.658 80.7333 336.012 82.64C334.365 84.46 333.108 86.7567 332.242 89.53C331.462 92.3033 331.072 95.4667 331.072 99.02C331.072 106.127 332.718 111.717 336.012 115.79C339.392 119.777 344.158 121.77 350.312 121.77C352.305 121.77 354.385 121.467 356.552 120.86C358.718 120.253 360.842 119.213 362.922 117.74C364.135 117.047 365.262 116.787 366.302 116.96C367.342 117.133 368.165 117.61 368.772 118.39C369.465 119.083 369.898 119.95 370.072 120.99C370.332 121.943 370.288 122.94 369.942 123.98C369.595 125.02 368.858 125.887 367.732 126.58C364.958 128.573 361.925 130.003 358.632 130.87C355.425 131.737 352.305 132.17 349.272 132.17ZM409.172 132.17C403.972 132.17 399.596 131.26 396.042 129.44C392.489 127.62 389.846 124.933 388.112 121.38C386.379 117.827 385.512 113.493 385.512 108.38V77.7H377.712C375.979 77.7 374.636 77.2667 373.682 76.4C372.729 75.4467 372.252 74.19 372.252 72.63C372.252 70.9833 372.729 69.7267 373.682 68.86C374.636 67.9933 375.979 67.56 377.712 67.56H385.512V54.17C385.512 52.0033 386.076 50.3567 387.202 49.23C388.416 48.1033 390.062 47.54 392.142 47.54C394.222 47.54 395.826 48.1033 396.952 49.23C398.079 50.3567 398.642 52.0033 398.642 54.17V67.56H413.852C415.586 67.56 416.929 67.9933 417.882 68.86C418.836 69.7267 419.312 70.9833 419.312 72.63C419.312 74.19 418.836 75.4467 417.882 76.4C416.929 77.2667 415.586 77.7 413.852 77.7H398.642V107.34C398.642 111.933 399.596 115.4 401.502 117.74C403.496 120.08 406.702 121.25 411.122 121.25C412.682 121.25 414.026 121.12 415.152 120.86C416.366 120.513 417.362 120.297 418.142 120.21C419.096 120.21 419.876 120.557 420.482 121.25C421.089 121.857 421.392 123.07 421.392 124.89C421.392 126.19 421.132 127.403 420.612 128.53C420.179 129.657 419.356 130.393 418.142 130.74C417.102 131.087 415.672 131.39 413.852 131.65C412.119 131.997 410.559 132.17 409.172 132.17ZM456.538 132.17C450.125 132.17 444.578 130.827 439.898 128.14C435.305 125.453 431.708 121.64 429.108 116.7C426.508 111.76 425.208 105.953 425.208 99.28C425.208 94.1667 425.945 89.6167 427.418 85.63C428.891 81.6433 430.971 78.22 433.658 75.36C436.431 72.4133 439.725 70.2033 443.538 68.73C447.438 67.17 451.771 66.39 456.538 66.39C462.865 66.39 468.325 67.7333 472.918 70.42C477.598 73.1067 481.238 76.92 483.838 81.86C486.438 86.7133 487.738 92.52 487.738 99.28C487.738 104.307 487.001 108.857 485.528 112.93C484.055 117.003 481.931 120.47 479.158 123.33C476.471 126.19 473.178 128.4 469.278 129.96C465.465 131.433 461.218 132.17 456.538 132.17ZM456.538 122.03C460.091 122.03 463.211 121.163 465.898 119.43C468.585 117.697 470.665 115.14 472.138 111.76C473.698 108.38 474.478 104.22 474.478 99.28C474.478 91.8267 472.831 86.1933 469.538 82.38C466.245 78.5667 461.911 76.66 456.538 76.66C452.898 76.66 449.735 77.5267 447.048 79.26C444.361 80.9067 442.238 83.42 440.678 86.8C439.205 90.18 438.468 94.34 438.468 99.28C438.468 106.647 440.115 112.28 443.408 116.18C446.701 120.08 451.078 122.03 456.538 122.03Z" fill="white"/>
<defs>
<filter id="filter0_i_4_2" x="0" y="32" width="95" height="104" filterUnits="userSpaceOnUse" color-interpolation-filters="sRGB">
<feFlood flood-opacity="0" result="BackgroundImageFix"/>
<feBlend mode="normal" in="SourceGraphic" in2="BackgroundImageFix" result="shape"/>
<feColorMatrix in="SourceAlpha" type="matrix" values="0 0 0 0 0 0 0 0 0 0 0 0 0 0 0 0 0 0 127 0" result="hardAlpha"/>
<feOffset dy="4"/>
<feGaussianBlur stdDeviation="2"/>
<feComposite in2="hardAlpha" operator="arithmetic" k2="-1" k3="1"/>
<feColorMatrix type="matrix" values="0 0 0 0 0 0 0 0 0 0 0 0 0 0 0 0 0 0 0.25 0"/>
<feBlend mode="normal" in2="shape" result="effect1_innerShadow_4_2"/>
</filter>
<linearGradient id="paint0_linear_4_2" x1="10" y1="62" x2="10" y2="132" gradientUnits="userSpaceOnUse">
<stop stop-color="#6A12CB"/>
<stop offset="1" stop-color="#2575FC"/>
</linearGradient>
<linearGradient id="paint1_linear_4_2" x1="47.5" y1="32" x2="47.5" y2="132" gradientUnits="userSpaceOnUse">
<stop stop-color="#6A12CB"/>
<stop offset="0.23" stop-color="#7D5AF3"/>
<stop offset="1" stop-color="#2575FC"/>
</linearGradient>
<clipPath id="clip0_4_2">
<rect width="95" height="100" fill="white" transform="translate(0 32)"/>
</clipPath>
</defs>
</svg>
